PathFileType	4	(X/Y/Z)	E:\Qualisys_Data\Carbon_Farble_Plate\Data\Amateur_Runner\S1\T3\S1T3V13_c3d.trc
DataRate	CameraRate	NumFrames	NumMarkers	Units	OrigDataRate	OrigDataStartFrame	OrigNumFrames
200.000000	200.000000	4	39	mm	200.000000	238	318
Frame#	Time	LSHO			RSHO			LICST			RICST			LASIS			LHEEL			RASIS			LTROC			RTROC			SACR			LTH1			LSK4			LTH2			LTH3			RHM5			LSK2			LTH4			RTH1			LTOE			RTH2			RTH3			RTH4			LLEP			RLEP			LSK1			LSK3			RSK1			LHM5			RSK2			LFT1			RSK3			RSK4			LLME			RLME			RTOE			RHEEL			RFT1			RFT2			LFT2			
		X1	Y1	Z1	X2	Y2	Z2	X3	Y3	Z3	X4	Y4	Z4	X5	Y5	Z5	X6	Y6	Z6	X7	Y7	Z7	X8	Y8	Z8	X9	Y9	Z9	X10	Y10	Z10	X11	Y11	Z11	X12	Y12	Z12	X13	Y13	Z13	X14	Y14	Z14	X15	Y15	Z15	X16	Y16	Z16	X17	Y17	Z17	X18	Y18	Z18	X19	Y19	Z19	X20	Y20	Z20	X21	Y21	Z21	X22	Y22	Z22	X23	Y23	Z23	X24	Y24	Z24	X25	Y25	Z25	X26	Y26	Z26	X27	Y27	Z27	X28	Y28	Z28	X29	Y29	Z29	X30	Y30	Z30	X31	Y31	Z31	X32	Y32	Z32	X33	Y33	Z33	X34	Y34	Z34	X35	Y35	Z35	X36	Y36	Z36	X37	Y37	Z37	X38	Y38	Z38	X39	Y39	Z39	

239	1.19	1547.928466796875	1508.487915039062	-606.7698974609375	1601.547485351562	1512.089965820312	-290.396240234375	1555.63037109375	1043.5380859375	-565.9918823242188	1562.53759765625	1053.351440429688	-267.6871948242188	1605.222778320312	1005.849914550781	-538.4871215820312	1680.332153320312	73.6172866821289	-462.2084350585938	1597.23486328125	1002.778991699219	-277.5129699707031	1505.127319335938	919.6759643554688	-586.9594116210938	1477.005615234375	926.7540283203124	-243.8343353271484	1440.217041015625	1064.634765625	-411.8218688964844	1666.909790039062	797.6798095703125	-561.3934936523438	1656.183471679688	236.29931640625	-500.0703735351562	1592.234130859375	767.716552734375	-592.5632934570312	1696.283447265625	698.901611328125	-545.6785278320312	1041.308349609375	186.5759887695312	-283.1278381347656	1647.644897460938	332.6397399902344	-541.43359375	1617.400756835938	672.6358032226562	-567.7096557617188	1569.927978515625	772.0241088867188	-278.900634765625	1919.973388671875	144.3519897460938	-485.111083984375	1499.468627929688	786.8704223632812	-247.0653381347656	1545.694458007812	674.7240600585938	-289.4590454101562	1471.7900390625	691.7079467773438	-262.4493103027344	1694.15869140625	545.3621826171875	-525.5316772460938	1439.190551757812	523.0821533203125	-298.6708679199219	1732.1650390625	336.7002258300781	-531.7117309570312	1732.420532226562	235.5208129882812	-524.6409912109375	1274.078125	428.4480590820312	-277.9304504394531	1858.669677734375	97.52188110351562	-537.0313110351562	1235.122802734375	498.7268981933594	-293.3529052734375	1699.310424804688	51.43662643432617	-433.1361694335938	1187.496704101562	377.3407287597656	-287.0269470214844	1150.292114257812	445.8056335449219	-312.7420349121094	1720.591186523438	111.0305557250977	-514.9757690429688	1057.685180664062	338.2348327636719	-286.7213134765625	1073.211791992188	144.6236572265625	-355.9885559082031	1000.060180664062	383.1571960449219	-327.0648193359375	977.3886108398438	368.6535949707031	-359.5613098144531	975.8547973632812	372.0206298828125	-306.2918395996094	1694.501586914062	43.27882385253906	-483.4642944335938
240	1.195	1564.191284179688	1503.397216796875	-607.8751220703125	1617.064086914062	1508.005981445312	-291.5215148925781	1572.206787109375	1040.025390625	-565.678466796875	1578.284301757812	1048.612548828125	-267.8609008789062	1619.136352539062	1002.888854980469	-539.4577026367188	1685.836059570312	73.59956359863281	-462.3468017578125	1613.421997070312	998.457275390625	-277.6347961425781	1520.116943359375	915.66455078125	-587.1692504882812	1493.825805664062	921.2116088867188	-243.9193115234375	1456.12158203125	1059.914428710938	-411.441162109375	1683.492065429688	795.0975341796875	-563.31005859375	1665.831176757812	232.2985382080078	-499.0868835449219	1608.357788085938	764.5325317382812	-591.5075073242188	1713.781127929688	696.3136596679688	-545.9357299804688	1057.5595703125	190.2230377197266	-282.9677734375	1659.2001953125	328.6705322265625	-540.7288818359375	1634.213134765625	669.839111328125	-566.465087890625	1588.308959960938	767.7474975585938	-278.7281799316406	1927.758422851562	133.0665130615234	-484.2116394042969	1517.309204101562	781.1320190429688	-247.6082763671875	1565.630737304688	669.9012451171875	-288.5342407226562	1491.245361328125	686.0335083007812	-262.2562255859375	1709.44189453125	541.18115234375	-525.9987182617188	1461.579833984375	517.3671875	-298.0685424804688	1743.618896484375	331.1651611328125	-531.3818969726562	1742.326171875	229.89697265625	-523.64453125	1294.659301757812	425.4444580078125	-277.8725891113281	1864.0009765625	89.27163696289062	-535.4368896484375	1257.530029296875	496.7225952148438	-293.9077758789062	1703.354614257812	50.64253616333008	-432.2081298828125	1207.144287109375	376.4595642089844	-287.344482421875	1171.6240234375	445.8751525878906	-312.8163757324219	1727.76318359375	107.6277694702148	-514.21826171875	1077.034545898438	341.2656860351562	-286.68896484375	1088.753173828125	147.4241485595703	-355.6321716308594	1019.961791992188	387.2593688964844	-327.2660217285156	997.2161254882812	373.1450805664062	-360.1519775390625	995.591796875	376.8031616210938	-306.6720886230469	1697.839599609375	44.18029022216797	-482.9275512695312
241	1.2	1580.826171875	1498.096923828125	-608.8292236328125	1631.944458007812	1503.743530273438	-292.24853515625	1586.850341796875	1036.288452148438	-565.5182495117188	1594.282104492188	1043.636352539062	-268.0159912109375	1635.554443359375	999.7782592773438	-540.0380249023438	1691.365600585938	75.24542999267578	-462.1996154785156	1629.291625976562	993.6119384765624	-278.0083923339844	1535.498168945312	911.214599609375	-587.1831665039062	1510.374145507812	915.45654296875	-243.9492340087891	1471.690063476562	1054.875610351562	-410.8091430664062	1700.4375	791.9735717773438	-563.8143920898438	1675.254150390625	228.4170379638672	-498.2535705566406	1624.861572265625	760.8161010742188	-590.5988159179688	1731.06005859375	693.7406005859375	-546.1266479492188	1074.45263671875	193.5750274658203	-282.2425842285156	1670.610961914062	324.8731994628906	-539.7847900390625	1651.3056640625	666.5303344726562	-565.2705688476562	1606.701416015625	763.2597045898438	-278.4108581542969	1934.365600585938	119.3351058959961	-483.844482421875	1535.59716796875	775.6410522460938	-247.3773345947266	1585.477661132812	664.6467895507812	-287.8360595703125	1510.838012695312	680.1107177734375	-261.9059143066406	1724.730712890625	536.8074951171875	-526.94140625	1484.010620117188	510.9622497558594	-296.8846740722656	1755.2177734375	325.5322570800781	-530.9088745117188	1751.676025390625	224.6039428710938	-522.8826293945312	1315.942260742188	422.9794311523438	-277.2564697265625	1868.619995117188	78.52485656738281	-533.9393310546875	1280.359130859375	494.7548217773438	-294.02392578125	1706.734985351562	50.05659866333008	-431.8797302246094	1227.194458007812	375.8363037109375	-287.1082153320312	1193.646606445312	445.7418823242188	-313.1847534179688	1733.933837890625	103.4021759033203	-513.6424560546875	1096.4599609375	344.3267211914062	-286.8915710449219	1104.6318359375	150.0129852294922	-354.6332702636719	1040.353271484375	391.309814453125	-327.9793395996094	1017.311584472656	377.3914184570312	-361.0329895019531	1015.996887207031	381.2175598144531	-307.1275024414062	1700.596923828125	43.72832870483398	-482.7251281738281
242	1.205	1597.416259765625	1492.374755859375	-610.12255859375	1647.268432617188	1499.180419921875	-293.2034301757812	1601.688720703125	1031.36083984375	-565.809326171875	1609.895141601562	1038.76025390625	-267.9613952636719	1649.944580078125	995.51513671875	-540.7212524414062	1695.523071289062	74.6005630493164	-463.4814453125	1645.2255859375	988.525390625	-277.88916015625	1550.462768554688	906.9276123046876	-587.135986328125	1526.877685546875	909.4246826171876	-244.3214874267578	1487.087524414062	1049.851928710938	-410.4794616699219	1717.046264648438	788.3392944335938	-564.5919799804688	1683.8759765625	224.7266235351562	-497.3258666992188	1641.351196289062	757.0712280273438	-590.201416015625	1747.520629882812	689.7985229492188	-547.8776245117188	1092.040405273438	197.062255859375	-281.5092468261719	1681.550903320312	320.9132995605469	-539.1967163085938	1667.9521484375	662.8623046875	-564.250244140625	1624.863525390625	758.56982421875	-278.0406799316406	1941.197265625	105.3087463378906	-483.0558776855469	1553.277221679688	770.0260009765625	-247.6774597167969	1605.6044921875	659.6343383789062	-286.5649719238281	1530.190551757812	673.7308349609375	-262.0978088378906	1739.748779296875	531.8331909179688	-527.74169921875	1506.625	504.8352966308594	-296.3825378417969	1766.719116210938	319.8572387695312	-529.942138671875	1760.202026367188	218.8128967285156	-522.0363159179688	1337.53955078125	419.839111328125	-277.0645751953125	1873.497680664062	66.89800262451172	-533.0131225585938	1303.7822265625	492.6111450195312	-294.1340942382812	1709.468872070312	49.26102447509766	-432.035400390625	1247.726318359375	374.8978271484375	-286.7822265625	1215.97216796875	445.2434692382812	-313.7416381835938	1739.510498046875	99.6818389892578	-513.341064453125	1116.613159179688	346.9423828125	-286.7525329589844	1121.822509765625	152.72607421875	-353.8753662109375	1061.515747070312	395.0229187011719	-328.8486022949219	1038.450927734375	381.2132263183594	-361.3507690429688	1037.00146484375	384.9606323242188	-308.0029907226562	1703.642700195312	41.48736572265625	-482.8955993652344
